<svg width="1024" height="1024" viewBox="0 0 1024 1024" fill="none" xmlns="http://www.w3.org/2000/svg">
<g clip-path="url(#clip0_157_1313)">
<rect width="1024" height="1024" fill="url(#paint0_linear_157_1313)"/>
<path d="M137.522 492.46C138.388 454.405 156.168 413.432 168.719 377.976C180.676 349.58 218.436 281.219 273.813 234.943C301.171 212.081 337.358 191.383 370.078 177.782C410.75 160.875 453.071 162.209 497.498 158.712C540.721 155.309 589.559 153.858 630.125 171.376C666.872 187.245 709.12 197.048 743.114 218.224C797.507 252.108 828.547 300.146 853.867 357.248C865.893 384.372 875.506 415.085 878.993 444.593C881.772 468.111 886.691 507.91 884.506 531.342C877.259 609.09 878.602 650.063 804.561 732.888C789.478 761.291 775.385 778.603 747.479 795.173C728.594 806.387 708.722 815.434 689.591 826.14C674.379 834.653 656.766 838.725 640.607 845.006C613.371 855.591 587.408 868.859 560.732 880.7C539.483 890.132 514.102 892.405 491.067 893.109C452.377 894.291 412.931 889.052 376.492 875.782C345.006 864.317 317.134 844.697 289.953 825.565L289.198 825.033C276.161 815.857 262.451 810.089 251.923 797.957C208.193 747.568 174.738 681.835 156.01 617.945C143.592 575.58 136.515 536.699 137.522 492.46Z" fill="white"/>
<circle cx="22.9044" cy="22.9044" r="22.9044" transform="matrix(-0.796497 0.604642 0.604642 0.796497 555.56 288.306)" fill="black"/>
<circle cx="22.9044" cy="22.9044" r="22.9044" transform="matrix(-0.796497 0.604642 0.604642 0.796497 431.309 382.629)" fill="black"/>
<path d="M490.065 437.506C497.345 442.481 524.663 449.859 552.571 421.56" stroke="black" stroke-width="12.3807"/>
<rect x="601.834" y="851.337" width="148.712" height="46.7379" rx="22.8265" transform="rotate(-24.321 601.834 851.337)" fill="white"/>
<path d="M697.716 846.616C697.716 879.648 707.474 910.483 726.84 937.594C742.713 959.817 780.374 964.914 805.705 964.914C847.414 964.914 889.124 964.914 930.833 964.914C949.733 964.914 968.633 964.914 987.534 964.914C1002.75 964.914 1013.56 969.727 1027.61 974.708C1042.41 979.954 1079.74 991.346 1087.4 1006.67" stroke="white" stroke-width="6" stroke-linecap="round"/>
</g>
<rect x="0.5" y="0.5" width="1023" height="1023" stroke="white" stroke-opacity="0.1"/>
<defs>
<linearGradient id="paint0_linear_157_1313" x1="67" y1="47.5" x2="923.5" y2="1024" gradientUnits="userSpaceOnUse">
<stop stop-color="#FFC4E0"/>
<stop offset="1" stop-color="#C4ACFE"/>
</linearGradient>
<clipPath id="clip0_157_1313">
<rect width="1024" height="1024" fill="white"/>
</clipPath>
</defs>
</svg>
