<svg width="200" height="200" viewBox="0 0 200 200" fill="none" xmlns="http://www.w3.org/2000/svg">
<path d="M129.721 88.8498C130.691 89.241 132.903 88.0724 133.726 87.5744C138.911 84.4399 142.234 78.6161 145.63 73.8C154.325 61.4681 159.959 47.1742 166.354 33.6038C167.939 30.2411 169.359 26.9353 171.172 23.6793C171.797 22.5554 172.483 19.5084 173.683 19.1666" stroke="#ACACAC" stroke-width="1.1001" stroke-linecap="round"/>
<path d="M62.2705 58.0827C64.8314 53.9854 69.4275 50.6657 73.0952 47.6092C76.2407 45.2849 84.7924 40.2708 93.8357 38.809C98.3034 38.0868 103.595 38.1729 108.047 38.809C113.582 39.5997 118.115 42.4882 123.19 44.9857C128.129 47.4156 133.553 50.4224 136.845 54.9634C139.828 59.077 143.803 62.885 146.141 67.3994C149.882 74.623 150.157 81.8778 149.219 89.7512C148.774 93.491 147.962 97.3771 146.43 100.824C145.21 103.571 142.589 105.927 140.832 108.343C135.002 116.359 127.934 122.417 119.493 127.555C116.006 129.678 113.345 130.654 109.226 130.654C106.438 130.654 103.683 130.353 100.901 130.282C98.6885 130.225 96.5023 129.528 94.3315 129.166C90.6728 128.557 86.9792 128.322 83.3002 127.886C80.3697 127.538 77.4523 126.141 74.8925 124.725C70.593 122.346 66.6272 119.218 63.51 115.408C60.8166 112.116 59.046 108.168 57.3193 104.319L57.2714 104.212C56.4432 102.365 55.3206 100.847 54.9577 98.8406C53.4505 90.5067 54.0592 81.164 56.1558 72.977C57.5461 67.5484 59.2935 62.846 62.2705 58.0827Z" fill="#FFC4E0"/>
<circle cx="2.90741" cy="2.90741" r="2.90741" transform="matrix(-0.956236 0.292597 0.292597 0.956236 116.868 59.7472)" fill="black"/>
<circle cx="2.90741" cy="2.90741" r="2.90741" transform="matrix(-0.956236 0.292597 0.292597 0.956236 97.9326 65.5411)" fill="black"/>
<path d="M102.529 74.6533C103.178 75.5649 106.11 77.6407 110.674 75.4918" stroke="black" stroke-width="1.57157"/>
<path d="M82.2298 122.45C75.8231 140.709 69.4164 158.968 63.0097 177.227C62.3869 179.002 61.764 180.777 61.1411 182.552C60.8475 183.389 60.438 183.046 59.6396 182.773C56.8215 181.809 54.0179 180.8 51.2075 179.814" stroke="#ACACAC" stroke-width="1.1001" stroke-linecap="round"/>
<path d="M115.403 124.586C117.592 143.813 119.781 163.039 121.97 182.265C122.182 184.134 122.395 186.003 122.608 187.872C122.708 188.753 123.184 188.51 124.023 188.421C126.985 188.108 129.942 187.747 132.902 187.41" stroke="#ACACAC" stroke-width="1.1001" stroke-linecap="round"/>
<path d="M67.7539 90.5381C66.7183 90.6813 64.8577 89.0092 64.1801 88.3255C59.9152 84.0225 58.1112 77.5646 55.9908 72.0664C50.5616 57.9878 48.5796 42.7522 45.6825 28.0326C44.9646 24.3852 44.3921 20.833 43.4277 17.2335C43.0948 15.9911 43.1715 12.8688 42.091 12.245" stroke="#ACACAC" stroke-width="1.1001" stroke-linecap="round"/>
</svg>
