<svg width="64" height="161" viewBox="0 0 64 161" fill="none" xmlns="http://www.w3.org/2000/svg">
<path d="M54.0674 35.2668C54.3889 36.4454 56.142 37.8083 56.8776 38.8592C58.0894 40.5903 59.3193 42.4626 59.7891 44.5374C60.5033 47.6919 60.2401 51.7185 59.8326 54.8509C59.1239 60.2977 57.6189 66.022 55.3421 71.0309C52.6075 77.047 50.0114 83.115 47.8243 89.3548C46.1575 94.1099 45.8968 98.4143 46.0426 103.434C46.1955 108.701 46.453 113.631 48.5775 118.499C49.1933 119.91 51.7666 123.702 50.6779 122.613" stroke="url(#paint0_linear_225_588)" stroke-linecap="round"/>
<circle cx="40.8638" cy="22.7634" r="18.5861" transform="rotate(-15 40.8638 22.7634)" fill="url(#paint1_linear_225_588)"/>
<circle cx="18.5861" cy="18.5861" r="18.5861" transform="matrix(-0.956236 0.292597 0.292597 0.956236 35.5439 92.5747)" fill="#FFC4E0"/>
<circle cx="31.3554" cy="18.7519" r="1.19597" transform="rotate(-15 31.3554 18.7519)" fill="black"/>
<circle cx="1.19597" cy="1.19597" r="1.19597" transform="matrix(-0.956236 0.292597 0.292597 0.956236 29.9395 105.851)" fill="black"/>
<circle cx="39.2245" cy="16.6435" r="1.19597" transform="rotate(-15 39.2245 16.6435)" fill="black"/>
<circle cx="1.19597" cy="1.19597" r="1.19597" transform="matrix(-0.956236 0.292597 0.292597 0.956236 22.1504 108.234)" fill="black"/>
<path d="M35.5527 22.158C35.5573 21.6976 36.058 20.3074 38.1038 19.9584" stroke="black" stroke-width="0.646472"/>
<path d="M27.418 112.198C27.1135 111.852 25.8258 111.128 24.0496 112.201" stroke="black" stroke-width="0.646472"/>
<path d="M19.6876 133.504C19.6876 141.464 19.6876 149.424 19.6876 157.383C19.6876 158.157 19.6876 158.931 19.6876 159.705C19.6876 160.07 19.482 159.992 19.1349 159.995C17.9097 160.005 16.6842 159.995 15.459 159.995" stroke="#FFC4E0" stroke-linecap="round"/>
<path d="M25.2772 133.504C25.2772 141.464 25.2772 149.424 25.2772 157.383C25.2772 158.157 25.2772 158.931 25.2772 159.705C25.2772 160.07 25.4829 159.992 25.83 159.995C27.0551 160.005 28.2807 159.995 29.5059 159.995" stroke="#FFC4E0" stroke-linecap="round"/>
<path d="M10.5972 120.38C10.1705 120.433 9.60926 121.295 9.41279 121.639C8.17633 123.803 8.14706 126.561 7.88995 128.971C7.23161 135.143 8.06615 141.408 8.48217 147.565C8.58525 149.091 8.73597 150.563 8.73597 152.096C8.73597 152.625 9.09887 153.858 8.73597 154.221" stroke="#FFC4E0" stroke-linecap="round"/>
<path d="M41.0264 110.966C41.7374 111.677 42.328 112.437 42.6916 113.392C42.931 114.02 42.9857 114.772 43.0674 115.437C43.2122 116.617 43.3767 117.782 43.6101 118.949C43.7207 119.502 43.8859 121.074 44.7929 120.763C45.362 120.567 46.0933 119.681 46.3283 119.139C46.6136 118.481 46.7772 117.768 47.0381 117.098C47.2054 116.668 47.5889 116.047 47.6225 115.577C47.7142 114.293 47.706 113.005 47.706 111.717C47.706 111.487 47.8276 110.889 47.5298 110.799C46.8667 110.599 46.1685 110.782 45.7021 111.281C45.5248 111.471 45.4449 111.586 45.3496 111.801C45.2287 112.073 45.2846 111.649 45.2846 111.55" stroke="#FFC4E0" stroke-linecap="round"/>
<rect x="52.3643" y="37.3455" width="4.5253" height="1.42224" rx="0.711119" transform="rotate(-44.0569 52.3643 37.3455)" fill="url(#paint2_linear_225_588)"/>
<defs>
<linearGradient id="paint0_linear_225_588" x1="53.1216" y1="35.2668" x2="53.1216" y2="122.807" gradientUnits="userSpaceOnUse">
<stop offset="1" stop-color="#C4ACFE"/>
</linearGradient>
<linearGradient id="paint1_linear_225_588" x1="40.8638" y1="4.17736" x2="40.8638" y2="41.3495" gradientUnits="userSpaceOnUse">
<stop offset="1" stop-color="#C4ACFE"/>
</linearGradient>
<linearGradient id="paint2_linear_225_588" x1="54.6269" y1="37.3455" x2="54.6269" y2="38.7677" gradientUnits="userSpaceOnUse">
<stop offset="1" stop-color="#C4ACFE"/>
</linearGradient>
</defs>
</svg>
