<svg width="103" height="161" viewBox="0 0 103 161" fill="none" xmlns="http://www.w3.org/2000/svg">
<path d="M49.9482 115.49C50.1524 114.265 51.312 113.101 51.8106 111.965C52.2279 111.015 52.7077 110.012 52.8898 108.98C53.1237 107.654 52.9246 106.187 52.9246 104.837" stroke="#FFC4E0" stroke-linecap="round"/>
<circle cx="52.0308" cy="86.7632" r="18.5861" transform="rotate(-15 52.0308 86.7632)" fill="url(#paint0_linear_225_1041)"/>
<circle cx="18.5861" cy="18.5861" r="18.5861" transform="matrix(-0.956236 0.292597 0.292597 0.956236 43.8115 92.5747)" fill="#FFC4E0"/>
<path d="M43.6776 83.4421C43.8486 84.0802 43.3267 83.1762 42.4435 83.4421C41.5431 83.7133 41.5381 84.6992 41.3672 84.0612C41.1962 83.4232 41.5748 82.7674 42.2128 82.5965C42.8508 82.4255 43.5066 82.8041 43.6776 83.4421Z" fill="black"/>
<path d="M31.7817 109.124C31.8457 109.782 31.4792 108.805 30.5643 108.922C29.6316 109.042 29.465 110.014 29.401 109.356C29.337 108.699 29.8181 108.114 30.4755 108.05C31.1329 107.986 31.7177 108.467 31.7817 109.124Z" fill="black"/>
<path d="M49.9414 81.0798C50.2254 81.6761 49.548 80.8821 48.7278 81.3041C47.8917 81.7344 48.066 82.7048 47.7819 82.1085C47.4979 81.5122 47.751 80.7985 48.3473 80.5145C48.9436 80.2304 49.6573 80.4835 49.9414 81.0798Z" fill="black"/>
<path d="M38.0584 109.243C38.0098 109.902 37.8145 108.877 36.893 108.837C35.9535 108.797 35.6243 109.726 35.6729 109.067C35.7214 108.409 36.2947 107.914 36.9535 107.963C37.6122 108.011 38.1069 108.585 38.0584 109.243Z" fill="black"/>
<path d="M49.3105 83.9783C49.2829 84.4378 48.713 85.8011 46.6523 86.047" stroke="black" stroke-width="0.646472"/>
<path d="M32.3096 111.982C32.5767 112.357 33.7825 113.211 35.6602 112.327" stroke="black" stroke-width="0.646472"/>
<path d="M27.9552 133.504C27.9552 141.464 27.9552 149.424 27.9552 157.383C27.9552 158.157 27.9552 158.931 27.9552 159.705C27.9552 160.07 27.7496 159.992 27.4024 159.995C26.1773 160.005 24.9518 159.995 23.7266 159.995" stroke="#FFC4E0" stroke-linecap="round"/>
<path d="M33.5448 133.504C33.5448 141.464 33.5448 149.424 33.5448 157.383C33.5448 158.157 33.5448 158.931 33.5448 159.705C33.5448 160.07 33.7504 159.992 34.0976 159.995C35.3227 160.005 36.5482 159.995 37.7734 159.995" stroke="#FFC4E0" stroke-linecap="round"/>
<rect x="58.2676" y="103.98" width="4.5253" height="1.42224" rx="0.711119" transform="rotate(-25.945 58.2676 103.98)" fill="url(#paint1_linear_225_1041)"/>
<path d="M19.5583 117.996C12.6068 117.996 7.5394 111.734 5.82532 105.473C4.60029 100.998 4.16473 96.3558 4.06737 91.731C4.03828 90.3494 3.87092 88.792 4.20661 87.4492" stroke="#FFC4E0" stroke-linecap="round"/>
<path d="M60.6006 104.427C63.5971 107.757 64.4039 112.319 65.5176 116.568C67.1045 122.621 67.4031 128.964 67.4845 135.192C67.5206 137.956 67.5387 140.727 67.7455 143.485C67.9412 146.094 68.0382 148.85 68.7116 151.388C69.048 152.656 69.3908 154.651 70.6958 155.304C73.9582 156.935 77.8283 157.152 81.3828 157.453C85.3283 157.788 89.1632 158.686 93.088 159.168C95.101 159.415 97.1127 159.411 99.1364 159.411" stroke="url(#paint2_linear_225_1041)" stroke-linecap="round"/>
<defs>
<linearGradient id="paint0_linear_225_1041" x1="52.0307" y1="68.1771" x2="52.0307" y2="105.349" gradientUnits="userSpaceOnUse">
<stop offset="1" stop-color="#C4ACFE"/>
</linearGradient>
<linearGradient id="paint1_linear_225_1041" x1="60.5302" y1="103.98" x2="60.5302" y2="105.402" gradientUnits="userSpaceOnUse">
<stop offset="1" stop-color="#C4ACFE"/>
</linearGradient>
<linearGradient id="paint2_linear_225_1041" x1="79.8685" y1="104.427" x2="79.8685" y2="159.412" gradientUnits="userSpaceOnUse">
<stop offset="1" stop-color="#C4ACFE"/>
</linearGradient>
</defs>
</svg>
