<svg width="343" height="178" viewBox="0 0 343 178" fill="none" xmlns="http://www.w3.org/2000/svg">
<rect width="343" height="178" rx="5" fill="#FFD2D7"/>
<path d="M38.352 35.352L37.008 38.016C33.168 37.248 30.336 35.112 28.92 32.304C27.504 35.112 24.696 37.272 20.856 38.016L19.512 35.352C24.48 34.512 27.24 31.008 27.24 27.84V26.256H30.624V27.84C30.624 31.08 33.36 34.512 38.352 35.352ZM19.032 41.808H39.048V44.376H19.032V41.808ZM48.8141 29.304V35.568H53.3261V29.304H48.8141ZM52.6541 42.024H61.1261V44.568H41.1101V42.024H49.4861V38.088H42.7901V35.568H45.6701V29.304H42.6701V26.784H59.4701V29.304H56.4701V35.568H59.3981V38.088H52.6541V42.024ZM67.5323 35.424V39.528C70.8203 39.504 73.4843 39.384 76.5083 38.928L76.7963 41.448C73.3403 41.976 70.2443 42.072 66.2843 42.072H64.3643V26.784H75.5483V29.352H67.5323V32.952H74.6363V35.424H67.5323ZM78.4043 24.96H81.5963V47.088H78.4043V24.96ZM90.5224 29.544V39.36C91.2664 39.336 92.0344 39.312 92.8024 39.288V29.544H90.5224ZM95.8504 29.544V39.072C96.7144 39 97.5784 38.952 98.3944 38.832L98.5864 41.136C94.0984 41.928 89.0824 42.024 85.3144 42.024L84.9784 39.432C85.7464 39.432 86.5864 39.432 87.4504 39.432V29.544H85.5544V27H97.7464V29.544H95.8504ZM105.786 33.312V35.928H102.57V47.088H99.4024V24.984H102.57V33.312H105.786ZM122.489 24.936H125.657V47.112H122.489V24.936ZM113.777 26.496C117.113 26.496 119.585 29.52 119.585 34.368C119.585 39.24 117.113 42.288 113.777 42.288C110.441 42.288 107.969 39.24 107.969 34.368C107.969 29.52 110.441 26.496 113.777 26.496ZM113.777 29.352C112.145 29.352 111.017 31.104 111.017 34.368C111.017 37.656 112.145 39.408 113.777 39.408C115.409 39.408 116.537 37.656 116.537 34.368C116.537 31.104 115.409 29.352 113.777 29.352ZM146.748 36.024V29.4H142.236V36.024H146.748ZM139.092 36.024V29.4H136.092V26.88H152.892V29.4H149.892V36.024H152.82V38.544H136.212V36.024H139.092ZM134.532 41.928H154.548V44.496H134.532V41.928ZM161.026 35.376V39.36C164.386 39.336 167.17 39.168 170.29 38.64L170.626 41.208C167.026 41.832 163.786 41.976 159.778 41.976H157.786V32.88H164.962V29.352H157.762V26.832H168.202V35.376H161.026ZM171.826 24.936H174.994V47.112H171.826V24.936ZM179.768 26.952H190.4V41.808H179.768V26.952ZM187.28 29.448H182.888V39.312H187.28V29.448ZM193.832 24.96H197V47.112H193.832V24.96ZM207.654 40.944V44.328H216.15V40.944H207.654ZM204.534 46.8V38.472H219.246V46.8H204.534ZM206.862 34.224C208.494 34.224 209.67 33.192 209.67 31.464C209.67 29.784 208.494 28.8 206.862 28.8C205.254 28.8 204.078 29.784 204.078 31.464C204.078 33.192 205.254 34.224 206.862 34.224ZM216.078 24.96H219.246V37.488H216.078V32.736H212.574C211.974 35.208 209.718 36.864 206.862 36.864C203.574 36.864 201.054 34.632 201.054 31.464C201.054 28.368 203.574 26.112 206.862 26.112C209.694 26.112 211.95 27.768 212.55 30.168H216.078V24.96Z" fill="black"/>
<path d="M233.632 41.512V37.8H230.608V41.512H233.632ZM236.944 37.288V32.152H238.192V45.48H236.944V38.36H234.864V42.584H229.36V33.256H230.608V36.744H233.632V33.256H234.864V37.288H236.944ZM239.792 31.832H241.04V46.184H239.792V31.832ZM253.999 31.832H255.311V46.216H253.999V31.832ZM247.743 32.936C249.871 32.936 251.391 34.888 251.391 37.944C251.391 41 249.871 42.952 247.743 42.952C245.615 42.952 244.095 41 244.095 37.944C244.095 34.888 245.615 32.936 247.743 32.936ZM247.743 34.12C246.335 34.12 245.343 35.624 245.343 37.944C245.343 40.28 246.335 41.784 247.743 41.784C249.135 41.784 250.127 40.28 250.127 37.944C250.127 35.624 249.135 34.12 247.743 34.12ZM267.054 38.84L266.414 39.88C264.766 39.304 263.454 38.12 262.798 36.616C262.19 38.248 260.862 39.528 259.166 40.152L258.478 39.128C260.654 38.36 262.11 36.488 262.11 34.472V33.896H258.83V32.84H266.702V33.896H263.454V34.472C263.454 36.392 264.942 38.136 267.054 38.84ZM260.462 42.328V41.272H270.062V46.184H268.75V42.328H260.462ZM268.75 31.832H270.062V40.52H268.75V31.832Z" fill="black"/>
<path d="M21.212 59.276H26.132C26.132 62.336 24.728 65.108 21.248 66.848L20.708 66.08C23.456 64.7 24.932 62.636 25.16 60.092H21.212V59.276ZM30.644 62.492V63.308H28.916V68.888H27.932V58.124H28.916V62.492H30.644ZM38.0351 63.332L37.5671 64.1C36.3431 63.704 35.4191 62.852 34.9631 61.784C34.5071 63.008 33.5351 63.968 32.2511 64.424L31.7471 63.644C33.3671 63.08 34.4471 61.688 34.4471 60.14V59.72H32.0351V58.928H37.8071V59.72H35.4311V60.14C35.4311 61.544 36.4511 62.804 38.0351 63.332ZM36.7271 68.096C38.3111 68.096 39.2831 67.652 39.2831 66.884C39.2831 66.128 38.3111 65.684 36.7271 65.684C35.1191 65.684 34.1591 66.128 34.1591 66.884C34.1591 67.652 35.1191 68.096 36.7271 68.096ZM36.7271 64.904C38.9111 64.904 40.2671 65.636 40.2671 66.884C40.2671 68.144 38.9111 68.876 36.7271 68.876C34.5191 68.876 33.1751 68.144 33.1751 66.884C33.1751 65.636 34.5191 64.904 36.7271 64.904ZM40.1471 60.848H41.7431V61.676H40.1471V64.628H39.1631V58.136H40.1471V60.848ZM52.7251 62.084L52.8451 62.9C51.0331 63.26 49.4251 63.38 47.8171 63.38H46.9771V58.712H47.9491V62.552C49.4731 62.54 51.0091 62.432 52.7251 62.084ZM54.9811 65.552H51.9931C52.0411 66.74 53.6131 67.784 55.4011 68.084L55.0171 68.84C53.4571 68.576 52.0771 67.772 51.4771 66.692C50.8771 67.772 49.4851 68.564 47.9251 68.828L47.5411 68.072C49.3531 67.784 50.9131 66.764 50.9611 65.552H47.9491V64.76H54.9811V65.552ZM54.8011 60.752H56.3971V61.568H54.8011V64.22H53.8171V58.112H54.8011V60.752ZM62.4682 59.288C60.7762 59.288 59.6962 59.792 59.6962 60.644C59.6962 61.496 60.7762 61.988 62.4682 61.988C64.1602 61.988 65.2402 61.496 65.2402 60.644C65.2402 59.792 64.1602 59.288 62.4682 59.288ZM62.4682 62.78C60.1642 62.78 58.6882 61.988 58.6882 60.644C58.6882 59.3 60.1642 58.496 62.4682 58.496C64.7722 58.496 66.2482 59.3 66.2482 60.644C66.2482 61.988 64.7722 62.78 62.4682 62.78ZM59.8402 65.528V67.844H66.2602V68.648H58.8562V65.528H59.8402ZM57.5962 63.788H67.3282V64.58H57.5962V63.788ZM72.8383 59.276H77.7583C77.7583 62.336 76.3543 65.108 72.8743 66.848L72.3343 66.08C75.0823 64.7 76.5583 62.636 76.7863 60.092H72.8383V59.276ZM82.2703 62.492V63.308H80.5423V68.888H79.5583V58.124H80.5423V62.492H82.2703ZM85.0893 65.816V65.024H92.2893V68.864H91.2933V65.816H85.0893ZM91.2933 58.124H92.2893V64.544H91.2933V63.128H88.5093V62.324H91.2933V60.848H88.6653C87.9453 62.54 86.2773 63.764 83.9733 64.412L83.5773 63.62C86.1813 62.912 87.8133 61.484 88.0053 59.648H84.1413V58.844H89.0613C89.0613 59.252 89.0133 59.66 88.9173 60.044H91.2933V58.124ZM99.4404 58.796C101.672 58.796 103.352 59.984 103.352 61.772C103.352 63.572 101.672 64.748 99.4404 64.748C97.2084 64.748 95.5284 63.572 95.5284 61.772C95.5284 59.984 97.2084 58.796 99.4404 58.796ZM99.4404 59.6C97.7484 59.6 96.4644 60.476 96.4644 61.772C96.4644 63.08 97.7484 63.944 99.4404 63.944C101.144 63.944 102.416 63.08 102.416 61.772C102.416 60.476 101.144 59.6 99.4404 59.6ZM94.5684 66.644H104.348V67.46H94.5684V66.644ZM111.103 66.752H115.507V67.556H105.727V66.752H110.107V64.724H106.951V61.4H113.335V59.72H106.927V58.916H114.295V62.192H107.923V63.932H114.547V64.724H111.103V66.752ZM129.67 63.536L129.226 64.352C127.594 63.98 125.913 62.828 125.23 61.244C124.545 62.816 122.865 63.968 121.245 64.352L120.801 63.536C122.685 63.164 124.713 61.544 124.713 59.708V58.88H125.745V59.708C125.745 61.544 127.786 63.176 129.67 63.536ZM120.393 66.632H130.15V67.448H120.393V66.632ZM135.069 59.948V63.476H137.745V59.948H135.069ZM136.905 66.74H141.309V67.544H131.553V66.74H135.909V64.268H132.441V63.476H134.085V59.948H132.417V59.156H140.397V59.948H138.729V63.476H140.373V64.268H136.905V66.74ZM144.368 62.912V65.492C146.324 65.492 147.716 65.42 149.324 65.132L149.42 65.936C147.74 66.224 146.3 66.296 144.248 66.296H143.396V59.096H148.616V59.9H144.368V62.12H148.22V62.912H144.368ZM150.56 58.124H151.544V68.876H150.56V58.124ZM156.127 60.08V65.372C156.703 65.36 157.303 65.336 157.891 65.312V60.08H156.127ZM158.851 60.08V65.252C159.415 65.216 159.967 65.168 160.495 65.096L160.567 65.828C158.311 66.188 155.755 66.224 153.859 66.224L153.739 65.396C154.183 65.396 154.663 65.396 155.167 65.384V60.08H154.015V59.288H160.003V60.08H158.851ZM163.927 62.432V63.248H162.151V68.888H161.167V58.136H162.151V62.432H163.927ZM172.854 58.124H173.838V68.912H172.854V58.124ZM168.162 58.952C169.758 58.952 170.898 60.416 170.898 62.708C170.898 65 169.758 66.464 168.162 66.464C166.566 66.464 165.426 65 165.426 62.708C165.426 60.416 166.566 58.952 168.162 58.952ZM168.162 59.84C167.106 59.84 166.362 60.968 166.362 62.708C166.362 64.46 167.106 65.588 168.162 65.588C169.206 65.588 169.95 64.46 169.95 62.708C169.95 60.968 169.206 59.84 168.162 59.84ZM179.681 58.916C181.361 58.916 182.561 59.936 182.561 61.448C182.561 62.948 181.361 63.98 179.681 63.98C178.013 63.98 176.801 62.948 176.801 61.448C176.801 59.936 178.013 58.916 179.681 58.916ZM179.681 59.756C178.577 59.756 177.761 60.44 177.761 61.448C177.761 62.444 178.577 63.14 179.681 63.14C180.797 63.14 181.601 62.444 181.601 61.448C181.601 60.44 180.797 59.756 179.681 59.756ZM183.977 58.124H184.961V68.912H183.977V58.124ZM176.381 66.548L176.261 65.72C178.217 65.72 180.917 65.708 183.269 65.348L183.353 66.08C180.929 66.524 178.325 66.548 176.381 66.548ZM195.271 62.672V59.636H192.247V62.672H195.271ZM196.231 58.856V63.464H191.287V58.856H196.231ZM199.375 65.696H196.375C196.495 66.824 198.043 67.832 199.795 68.108L199.423 68.864C197.863 68.6 196.483 67.82 195.871 66.74C195.259 67.832 193.879 68.6 192.283 68.852L191.923 68.096C193.699 67.832 195.223 66.848 195.343 65.696H192.343V64.904H199.375V65.696ZM199.195 60.704H200.791V61.52H199.195V64.268H198.211V58.124H199.195V60.704ZM202.866 62.816L202.578 62.06C204.594 61.88 206.25 61.088 206.334 59.912H203.01V59.132H206.382V58.052H207.366V59.132H210.738V59.912H207.402C207.486 61.088 209.142 61.88 211.17 62.06L210.87 62.816C209.094 62.636 207.522 62.012 206.874 60.968C206.214 62.012 204.642 62.636 202.866 62.816ZM209.586 67.952V66.2H204.162V67.952H209.586ZM211.734 64.244H207.366V65.42H210.546V68.744H203.202V65.42H206.382V64.244H202.002V63.44H211.734V64.244ZM222.848 61.268V59.216H220.172V61.268H222.848ZM219.188 61.268V59.216H217.556V58.46H225.452V59.216H223.832V61.268H225.416V62.024H217.592V61.268H219.188ZM218.816 67.016V68.024H225.464V68.768H217.856V66.308H224.168V65.384H217.82V64.652H225.14V67.016H218.816ZM216.644 62.924H226.388V63.704H216.644V62.924ZM229.123 63.044V65.42C230.347 65.42 231.511 65.372 232.891 65.132L232.975 65.936C231.475 66.188 230.251 66.248 228.883 66.248H228.175V62.264H231.055V60.116H228.139V59.312H232.003V63.044H229.123ZM233.839 61.988V58.388H234.763V68.324H233.839V62.804H232.507V61.988H233.839ZM236.011 58.124H236.959V68.888H236.011V58.124ZM246.798 58.124H247.782V68.912H246.798V58.124ZM242.106 58.952C243.702 58.952 244.842 60.416 244.842 62.708C244.842 65 243.702 66.464 242.106 66.464C240.51 66.464 239.37 65 239.37 62.708C239.37 60.416 240.51 58.952 242.106 58.952ZM242.106 59.84C241.05 59.84 240.306 60.968 240.306 62.708C240.306 64.46 241.05 65.588 242.106 65.588C243.15 65.588 243.894 64.46 243.894 62.708C243.894 60.968 243.15 59.84 242.106 59.84ZM251.741 62.96V65.48C253.505 65.48 255.089 65.396 256.973 65.096L257.069 65.9C255.125 66.224 253.493 66.296 251.645 66.296H250.757V62.168H254.717V59.924H250.721V59.12H255.713V62.96H251.741ZM257.981 58.112H258.965V68.9H257.981V58.112ZM270.568 63.536L270.124 64.352C268.492 63.98 266.812 62.828 266.128 61.244C265.444 62.816 263.764 63.968 262.144 64.352L261.7 63.536C263.584 63.164 265.612 61.544 265.612 59.708V58.88H266.644V59.708C266.644 61.544 268.684 63.176 270.568 63.536ZM261.292 66.632H271.048V67.448H261.292V66.632ZM281.091 63.932V64.724H273.699V59.06H280.983V59.852H274.695V61.448H280.743V62.228H274.695V63.932H281.091ZM272.439 66.692H282.207V67.496H272.439V66.692ZM291.146 60.008V59.132H284.834V58.436H292.118V60.68H285.83V61.604H292.31V62.312H284.858V60.008H291.146ZM285.77 67.04V68.036H292.49V68.744H284.798V66.356H291.182V65.456H284.774V64.748H292.154V67.04H285.77ZM283.61 63.128H293.366V63.872H283.61V63.128ZM25.064 77.284V73.876H22.04V77.284H25.064ZM26.024 73.084V78.064H21.08V73.084H26.024ZM23.276 79.264V81.844H29.468V82.648H22.292V79.264H23.276ZM28.988 75.4H30.572V76.228H28.988V79.996H28.004V72.112H28.988V75.4ZM33.1991 73.168V79.336C34.7471 79.336 36.3431 79.204 38.0831 78.856L38.2031 79.672C36.3671 80.044 34.7231 80.164 33.0791 80.164H32.2271V73.168H33.1991ZM41.8031 76.42V77.236H40.0751V82.888H39.0911V72.124H40.0751V76.42H41.8031ZM45.0781 75.616V77.596H50.5741V75.616H45.0781ZM48.3181 80.704H52.7101V81.508H42.9541V80.704H47.3221V78.388H44.1061V72.892H45.0781V74.812H50.5741V72.892H51.5341V78.388H48.3181V80.704ZM57.3052 73.144V75.16C57.3052 76.888 58.1092 78.712 59.5252 79.576L58.9612 80.344C57.9412 79.72 57.2212 78.58 56.8372 77.272C56.4532 78.7 55.6732 79.912 54.6052 80.572L53.9932 79.84C55.4692 78.976 56.3572 77.044 56.3572 75.196V73.144H57.3052ZM60.1372 75.988V72.364H61.0612V82.36H60.1372V76.804H58.3612V75.988H60.1372ZM62.3212 72.124H63.2572V82.888H62.3212V72.124ZM68.6442 78.16V80.692H71.6443V78.16C71.1882 78.268 70.6722 78.328 70.1322 78.328C69.6042 78.328 69.0882 78.268 68.6442 78.16ZM70.1322 73.576C68.4042 73.576 67.1682 74.368 67.1682 75.568C67.1682 76.768 68.4042 77.56 70.1322 77.56C71.8603 77.56 73.1082 76.768 73.1082 75.568C73.1082 74.368 71.8603 73.576 70.1322 73.576ZM72.6282 80.692H75.0403V81.508H65.2602V80.692H67.6602V77.788C66.7602 77.32 66.2202 76.54 66.2202 75.568C66.2202 73.888 67.8522 72.808 70.1322 72.808C72.4243 72.808 74.0443 73.888 74.0443 75.568C74.0443 76.54 73.5162 77.308 72.6282 77.776V80.692Z" fill="black"/>
<path d="M27.845 102.865H30.29V96.475H32.27V104.47H30.29V104.065H27.845V102.865ZM25.04 97.975C24.05 97.975 23.42 98.23 23.42 98.755C23.42 99.265 24.05 99.52 25.04 99.52C26.03 99.52 26.645 99.265 26.645 98.755C26.645 98.23 26.03 97.975 25.04 97.975ZM25.04 100.795C22.97 100.795 21.59 100 21.59 98.755C21.59 97.48 22.97 96.685 25.04 96.685C27.095 96.685 28.49 97.48 28.49 98.755C28.49 100 27.095 100.795 25.04 100.795ZM23.99 104.485V102.67C22.895 102.685 21.83 102.685 20.855 102.685L20.66 101.335C23.3 101.335 26.585 101.335 29.48 101.035L29.6 102.25C28.4 102.415 27.185 102.52 25.97 102.58V104.485H23.99ZM24.59 108.835H32.585V110.185H22.64V106.885H30.32V106.225H22.625V104.89H32.27V108.13H24.59V108.835ZM40.8521 108.78L38.8745 98.6509H40.4785L41.8262 107.008H41.8848L43.9209 98.6509H45.3784L47.4146 107.008H47.4658L48.8135 98.6509H50.4248L48.4473 108.78H46.6821L44.6826 100.599H44.6167L42.6172 108.78H40.8521ZM38.208 104.203V103.177H40.1123L40.7275 103.25H48.4546L49.0771 103.177H51.0913V104.203H48.96L48.4546 104.129H40.8008L40.1636 104.203H38.208ZM53.0103 109L57.6685 99.9326V99.8228H52.1313V98.4312H59.3311V99.8594L54.7388 109H53.0103ZM59.375 111.747L60.0195 107.44H61.7188L60.4956 111.747H59.375ZM67.4023 98.1748C67.9346 98.1748 68.4448 98.2749 68.9331 98.4751C69.4263 98.6704 69.8682 98.9829 70.2588 99.4126C70.6494 99.8374 70.957 100.392 71.1816 101.075C71.4062 101.759 71.5186 102.586 71.5186 103.558V103.573C71.5186 104.764 71.3525 105.785 71.0205 106.634C70.6885 107.479 70.21 108.128 69.585 108.583C68.9648 109.032 68.2178 109.256 67.3438 109.256C66.7188 109.256 66.1548 109.142 65.6519 108.912C65.1538 108.683 64.7388 108.365 64.4067 107.96C64.0747 107.555 63.8501 107.088 63.7329 106.561L63.7109 106.473H65.3442L65.3735 106.546C65.4712 106.815 65.6128 107.047 65.7983 107.242C65.9839 107.438 66.2061 107.591 66.4648 107.704C66.7236 107.811 67.019 107.865 67.3511 107.865C67.9419 107.865 68.4229 107.691 68.7939 107.345C69.1699 106.993 69.4507 106.527 69.6362 105.946C69.8218 105.365 69.9268 104.725 69.9512 104.027C69.9561 103.954 69.9585 103.883 69.9585 103.814C69.9585 103.746 69.9585 103.68 69.9585 103.617L69.6362 101.852C69.6362 101.422 69.5361 101.034 69.3359 100.687C69.1406 100.34 68.8745 100.064 68.5376 99.8594C68.2056 99.6543 67.832 99.5518 67.417 99.5518C67.0068 99.5518 66.6333 99.6519 66.2964 99.8521C65.9644 100.052 65.6982 100.323 65.498 100.665C65.2979 101.002 65.1978 101.383 65.1978 101.808V101.822C65.1978 102.252 65.293 102.635 65.4834 102.972C65.6738 103.309 65.9351 103.575 66.2671 103.771C66.5991 103.961 66.9751 104.056 67.395 104.056C67.8198 104.056 68.2007 103.961 68.5376 103.771C68.8745 103.58 69.1406 103.321 69.3359 102.994C69.5361 102.662 69.6362 102.284 69.6362 101.859V101.852H70.0684V103.778H69.812C69.6851 104.061 69.4946 104.325 69.2407 104.569C68.9868 104.813 68.6743 105.011 68.3032 105.162C67.937 105.309 67.5146 105.382 67.0361 105.382C66.3672 105.382 65.7715 105.23 65.249 104.928C64.7266 104.62 64.3164 104.203 64.0186 103.675C63.7207 103.143 63.5718 102.54 63.5718 101.866V101.852C63.5718 101.144 63.7354 100.514 64.0625 99.9619C64.3945 99.4053 64.8486 98.9683 65.4248 98.6509C66.0059 98.3335 66.665 98.1748 67.4023 98.1748ZM77.3267 109.256C76.5112 109.256 75.813 109.032 75.2319 108.583C74.6509 108.133 74.2041 107.496 73.8916 106.671C73.5791 105.841 73.4229 104.857 73.4229 103.719V103.705C73.4229 102.567 73.5791 101.585 73.8916 100.76C74.2041 99.9351 74.6509 99.2979 75.2319 98.8486C75.813 98.3994 76.5112 98.1748 77.3267 98.1748C78.1421 98.1748 78.8403 98.3994 79.4214 98.8486C80.0024 99.2979 80.4492 99.9351 80.7617 100.76C81.0791 101.585 81.2378 102.567 81.2378 103.705V103.719C81.2378 104.857 81.0791 105.841 80.7617 106.671C80.4492 107.496 80.0024 108.133 79.4214 108.583C78.8403 109.032 78.1421 109.256 77.3267 109.256ZM77.3267 107.887C77.8003 107.887 78.2031 107.718 78.5352 107.381C78.8721 107.044 79.1284 106.566 79.3042 105.946C79.4849 105.321 79.5752 104.579 79.5752 103.719V103.705C79.5752 102.845 79.4849 102.105 79.3042 101.485C79.1284 100.865 78.8721 100.389 78.5352 100.057C78.2031 99.7202 77.8003 99.5518 77.3267 99.5518C76.8579 99.5518 76.4551 99.7202 76.1182 100.057C75.7861 100.389 75.5298 100.865 75.3491 101.485C75.1733 102.105 75.0854 102.845 75.0854 103.705V103.719C75.0854 104.579 75.1733 105.321 75.3491 105.946C75.5298 106.566 75.7861 107.044 76.1182 107.381C76.4551 107.718 76.8579 107.887 77.3267 107.887ZM87.0825 109.256C86.2671 109.256 85.5688 109.032 84.9878 108.583C84.4067 108.133 83.96 107.496 83.6475 106.671C83.335 105.841 83.1787 104.857 83.1787 103.719V103.705C83.1787 102.567 83.335 101.585 83.6475 100.76C83.96 99.9351 84.4067 99.2979 84.9878 98.8486C85.5688 98.3994 86.2671 98.1748 87.0825 98.1748C87.8979 98.1748 88.5962 98.3994 89.1772 98.8486C89.7583 99.2979 90.2051 99.9351 90.5176 100.76C90.835 101.585 90.9937 102.567 90.9937 103.705V103.719C90.9937 104.857 90.835 105.841 90.5176 106.671C90.2051 107.496 89.7583 108.133 89.1772 108.583C88.5962 109.032 87.8979 109.256 87.0825 109.256ZM87.0825 107.887C87.5562 107.887 87.959 107.718 88.291 107.381C88.6279 107.044 88.8843 106.566 89.0601 105.946C89.2407 105.321 89.3311 104.579 89.3311 103.719V103.705C89.3311 102.845 89.2407 102.105 89.0601 101.485C88.8843 100.865 88.6279 100.389 88.291 100.057C87.959 99.7202 87.5562 99.5518 87.0825 99.5518C86.6138 99.5518 86.2109 99.7202 85.874 100.057C85.542 100.389 85.2856 100.865 85.105 101.485C84.9292 102.105 84.8413 102.845 84.8413 103.705V103.719C84.8413 104.579 84.9292 105.321 85.105 105.946C85.2856 106.566 85.542 107.044 85.874 107.381C86.2109 107.718 86.6138 107.887 87.0825 107.887Z" fill="black"/>
<path d="M320 82L327 89L320 96" stroke="#121212" stroke-width="2" stroke-linecap="round"/>
<rect x="20" y="125" width="307" height="32" rx="16" fill="black"/>
<path d="M154.7 135.568V137.31C154.7 139.533 155.649 141.717 157.677 142.588L156.702 143.979C155.324 143.355 154.401 142.172 153.868 140.703C153.335 142.302 152.36 143.589 150.93 144.265L149.903 142.848C151.996 141.951 152.984 139.637 152.984 137.31V135.568H154.7ZM158.262 134.632H159.978V146.644H158.262V134.632ZM169.168 140.118L168.297 141.444C166.997 141.028 166.1 140.183 165.58 139.13C165.047 140.287 164.111 141.21 162.733 141.665L161.836 140.326C163.786 139.689 164.631 138.194 164.67 136.712H162.291V135.347H168.765V136.712H166.425C166.464 138.09 167.283 139.507 169.168 140.118ZM163.448 143.758V142.393H171.443V146.631H169.727V143.758H163.448ZM173.029 137.531V138.948H171.443V141.86H169.727V134.645H171.443V137.531H173.029ZM177.435 142.77C178.241 142.77 178.826 142.224 178.826 141.301C178.826 140.404 178.241 139.845 177.435 139.845C176.629 139.845 176.031 140.404 176.031 141.314C176.031 142.224 176.629 142.77 177.435 142.77ZM177.435 138.454C179.164 138.454 180.451 139.637 180.451 141.301C180.451 142.991 179.164 144.174 177.435 144.174C175.693 144.174 174.393 142.991 174.393 141.301C174.393 139.637 175.693 138.454 177.435 138.454ZM178.28 134.853V136.413H180.88V137.778H173.912V136.413H176.564V134.853H178.28ZM185.092 139.325V140.742H183.376V146.618H181.66V134.645H183.376V139.325H185.092ZM186.599 135.88H192.345C192.345 139.546 191.11 142.536 186.859 144.59L185.962 143.238C189.017 141.769 190.343 139.897 190.59 137.245H186.599V135.88ZM194.178 134.632H195.907V146.605H194.178V134.632Z" fill="white"/>
</svg>
